<?xml version="1.0" encoding="UTF-8" standalone="no"?>
<!-- Created with Inkscape (http://www.inkscape.org/) -->

<svg
   width="100"
   height="100"
   viewBox="0 0 26.458333 26.458333"
   version="1.1"
   id="svg1"
   xml:space="preserve"
   inkscape:version="1.4.2 (f4327f4, 2025-05-13)"
   sodipodi:docname="logo.svg"
   inkscape:export-filename="logo64x64.png"
   inkscape:export-xdpi="61.439999"
   inkscape:export-ydpi="61.439999"
   xmlns:inkscape="http://www.inkscape.org/namespaces/inkscape"
   xmlns:sodipodi="http://sodipodi.sourceforge.net/DTD/sodipodi-0.dtd"
   xmlns="http://www.w3.org/2000/svg"
   xmlns:svg="http://www.w3.org/2000/svg"><sodipodi:namedview
     id="namedview1"
     pagecolor="#505050"
     bordercolor="#ffffff"
     borderopacity="1"
     inkscape:showpageshadow="0"
     inkscape:pageopacity="0"
     inkscape:pagecheckerboard="1"
     inkscape:deskcolor="#505050"
     inkscape:document-units="mm"
     inkscape:zoom="6.1229019"
     inkscape:cx="67.370016"
     inkscape:cy="36.012336"
     inkscape:window-width="3440"
     inkscape:window-height="1417"
     inkscape:window-x="-8"
     inkscape:window-y="-8"
     inkscape:window-maximized="1"
     inkscape:current-layer="layer1" /><defs
     id="defs1"><inkscape:path-effect
       effect="fillet_chamfer"
       id="path-effect1"
       is_visible="true"
       lpeversion="1"
       nodesatellites_param="F,0,1,1,0,2.6948445,0,1 @ F,0,1,1,0,2.6948445,0,1 @ F,0,1,1,0,2.6948445,0,1 @ F,0,1,1,0,2.6948445,0,1 @ F,0,1,1,0,2.6948445,0,1 @ F,0,0,1,0,2.6948445,0,1"
       radius="0"
       unit="px"
       method="auto"
       mode="F"
       chamfer_steps="1"
       flexible="false"
       use_knot_distance="true"
       apply_no_radius="true"
       apply_with_radius="true"
       only_selected="false"
       hide_knots="false" /></defs><g
     inkscape:label="Layer 1"
     inkscape:groupmode="layer"
     id="layer1"><path
       id="path1"
       style="fill:#0691fb;stroke-width:0.79375;fill-opacity:1"
       inkscape:transform-center-y="0.89881376"
       d="M 10.895363,25.110911 4.1061765,21.191172 A 4.6676074,4.6676074 60 0 1 1.7723728,17.148906 l 10e-8,-7.839478 A 4.6676076,4.6676076 120 0 1 4.1061768,5.2671613 L 10.895363,1.3474228 a 4.6676075,4.6676075 1.1252319e-6 0 1 4.667608,1e-7 l 6.789186,3.9197389 a 4.6676077,4.6676077 60.000001 0 1 2.333804,4.0422668 v 7.8394774 a 4.6676076,4.6676076 120 0 1 -2.333804,4.042266 l -6.789186,3.919739 a 4.6676077,4.6676077 180 0 1 -4.667608,0 z"
       sodipodi:nodetypes="ccccccc"
       inkscape:path-effect="#path-effect1"
       inkscape:original-d="M 13.229167,26.458333 1.7723727,19.84375 1.772373,6.6145835 13.229167,6.3578288e-7 24.685961,6.6145841 V 19.84375 Z" /><path
       d="m 14.240278,4.9966808 c 0,-0.559271 -0.451841,-1.011111 -1.011112,-1.011111 -0.559271,0 -1.011111,0.45184 -1.011111,1.011111 V 12.665329 L 9.8988193,10.346092 c -0.394966,-0.3949652 -1.03639,-0.3949652 -1.431355,0 -0.394965,0.394965 -0.394965,1.036389 0,1.431354 l 4.0444447,4.044446 c 0.394966,0.394965 1.036389,0.394965 1.431355,0 l 4.044444,-4.044446 c 0.394966,-0.394965 0.394966,-1.036389 0,-1.431354 -0.394965,-0.3949652 -1.036388,-0.3949652 -1.431354,0 l -2.316076,2.319237 z M 7.1624993,15.107794 c -1.115383,0 -2.022223,0.90684 -2.022223,2.022223 v 1.011111 c 0,1.115382 0.90684,2.022223 2.022223,2.022223 H 19.295834 c 1.115382,0 2.022223,-0.906841 2.022223,-2.022223 v -1.011111 c 0,-1.115383 -0.906841,-2.022223 -2.022223,-2.022223 h -3.207119 l -1.431354,1.431355 c -0.789931,0.78993 -2.069618,0.78993 -2.859549,0 l -1.428195,-1.431355 z m 11.6277787,1.769445 c 1.011111,0 1.011111,1.516667 0,1.516667 -1.011111,0 -1.011111,-1.516667 0,-1.516667 z"
       id="path1-8"
       style="fill:#ffffff;fill-opacity:1;stroke-width:0.0315972"
       sodipodi:nodetypes="sssccsscccsccssssssssscsccssss" /></g></svg>
