<?xml version="1.0" encoding="UTF-8" standalone="no"?>
<svg
   viewBox="0 0 512 512"
   version="1.1"
   id="svg1"
   sodipodi:docname="reply.svg"
   inkscape:version="1.4.2 (f4327f4, 2025-05-13)"
   inkscape:export-filename="reply.png"
   inkscape:export-xdpi="12"
   inkscape:export-ydpi="12"
   xmlns:inkscape="http://www.inkscape.org/namespaces/inkscape"
   xmlns:sodipodi="http://sodipodi.sourceforge.net/DTD/sodipodi-0.dtd"
   xmlns="http://www.w3.org/2000/svg"
   xmlns:svg="http://www.w3.org/2000/svg">
  <defs
     id="defs1" />
  <sodipodi:namedview
     id="namedview1"
     pagecolor="#505050"
     bordercolor="#ffffff"
     borderopacity="1"
     inkscape:showpageshadow="0"
     inkscape:pageopacity="0"
     inkscape:pagecheckerboard="1"
     inkscape:deskcolor="#505050"
     inkscape:zoom="1.1494141"
     inkscape:cx="330.16821"
     inkscape:cy="370.1886"
     inkscape:window-width="3440"
     inkscape:window-height="1417"
     inkscape:window-x="-8"
     inkscape:window-y="-8"
     inkscape:window-maximized="1"
     inkscape:current-layer="svg1"
     showguides="true" />
  <!--!Font Awesome Free 6.7.2 by @fontawesome - https://fontawesome.com License - https://fontawesome.com/license/free Copyright 2025 Fonticons, Inc.-->
  <path
     d="m 330.8973,393.30208 c -10.15942,-4.50548 -16.78513,-14.66491 -16.78513,-25.7961 V 310.9666 h -98.94392 c -85.8692,0 -155.483312,-69.61412 -155.483312,-155.48331 0,-100.092366 71.999372,-144.793813 88.519472,-153.8047771 C 150.41298,0.44171457 152.88658,0 155.36018,0 c 9.62936,0 17.40353,7.8625077 17.40353,17.403528 0,6.62571 -3.79874,12.721362 -8.65759,17.226844 -8.30423,7.774164 -19.61211,23.322492 -19.61211,50.090353 0,46.821675 37.98741,84.809075 84.80908,84.809075 h 84.80908 v -56.53938 c 0,-11.13117 6.53737,-21.290609 16.78512,-25.796094 10.24776,-4.505484 22.08571,-2.650279 30.38992,4.770513 L 502.63566,219.17845 C 508.55464,224.6557 512,232.25317 512,240.29238 c 0,8.03919 -3.44536,15.63667 -9.36434,21.02558 l -141.34845,127.2136 c -8.30421,7.50914 -20.2305,9.36434 -30.38991,4.77052 z"
     id="path1"
     style="fill:#343494;fill-opacity:1;stroke:none;stroke-width:0.883428"
     sodipodi:nodetypes="cscsscsscsscssccsccc" />
</svg>
